#N canvas 967 81 562 750 12;
#X obj 194 83 inlet;
#X floatatom 373 125 3 0 0 0 - - -;
#X obj 291 126 f 0;
#X obj 291 148 + 1;
#X obj 322 125 mod 16;
#X obj 228 215 f 0;
#X obj 228 239 + 1;
#X obj 261 193 t b f;
#X obj 261 215 mod 2;
#X obj 262 239 sel 0;
#X obj 262 265 outlet;
#X obj 194 104 f 0;
#X obj 194 128 + 1;
#X obj 228 128 sel 0;
#X obj 160 521 random 16;
#X obj 95 407 t b b;
#X obj 80 540 + 1;
#X obj 95 426 random 2;
#X obj 95 445 sel 0 1;
#X obj 116 483 + 1;
#X obj 115 503 * 2;
#X obj 116 464 random 3;
#X obj 80 521 random 3;
#X floatatom 168 407 9 0 0 0 - - -;
#X obj 303 405 random 6;
#X obj 303 424 + 3;
#X floatatom 376 405 9 0 0 0 - - -;
#X obj 37 31 table \$1-skipClock 16;
#X obj 261 170 tabread \$1-skipClock;
#X obj 80 560 tabwrite \$1-skipClock;
#X obj 313 265 s nextSkip;
#X obj 291 84 r nextSkip;
#X text 26 15 table of clk ticks to skip;
#X text 28 240 bangs after skipping n ticks;
#X text 244 68 read next value in clk tick table;
#X obj 361 104 r \$1-indexTableMax;
#X obj 303 444 s \$1-indexTableMax;
#X floatatom 143 593 3 0 0 0 - - -;
#X floatatom 162 542 3 0 0 0 - - -;
#X floatatom 293 465 3 0 0 0 - - -;
#X floatatom 199 261 3 0 0 0 - - -;
#X floatatom 320 236 3 0 0 0 - - -;
#X text 118 587 1-3;
#X text 119 601 2-6;
#X obj 303 330 expDist Max;
#X obj 95 332 expDist Skip;
#X obj 95 311 r lambdaSkip;
#X obj 303 309 r lambdaMax;
#X text 99 104 clock divider;
#X obj 227 103 mod 1;
#X obj 272 45 r clkDiv;
#N canvas 798 113 632 468 copyrightInfo 0;
#X text 74 306 j.raski@gmail.com;
#X text 43 19 This program creates generative music on an electronic
synthesiser. Copyright (C) 2020 Jerry Z. Raski This program is free
software: you can redistribute it and/or modify it under the terms
of the GNU General Public License as published by the Free Software
Foundation \, either version 3 of the License \, or (at your option)
any later version. This program is distributed in the hope that it
will be useful \, but WITHOUT ANY WARRANTY \; without even the implied
warranty of MERCHANTABILITY or FITNESS FOR A PARTICULAR PURPOSE. See
the GNU General Public License for more details. You should have received
a copy of the GNU General Public License along with this program. If
not \, see <https://www.gnu.org/licenses/>.;
#X restore 56 655 pd copyrightInfo;
#X obj 56 372 bng 15 250 50 0 empty empty empty 17 7 0 10 -262144 -1
-1;
#X connect 0 0 11 0;
#X connect 2 0 3 0;
#X connect 2 0 28 0;
#X connect 3 0 4 0;
#X connect 4 0 2 1;
#X connect 5 0 6 0;
#X connect 5 0 9 0;
#X connect 5 0 40 0;
#X connect 6 0 8 0;
#X connect 7 0 8 0;
#X connect 7 1 8 1;
#X connect 8 0 5 1;
#X connect 9 0 10 0;
#X connect 9 0 30 0;
#X connect 11 0 12 0;
#X connect 11 0 13 0;
#X connect 12 0 49 0;
#X connect 13 0 5 0;
#X connect 14 0 29 1;
#X connect 14 0 38 0;
#X connect 15 0 17 0;
#X connect 15 1 14 0;
#X connect 16 0 29 0;
#X connect 16 0 37 0;
#X connect 17 0 18 0;
#X connect 18 0 22 0;
#X connect 18 1 21 0;
#X connect 19 0 20 0;
#X connect 20 0 29 0;
#X connect 20 0 37 0;
#X connect 21 0 19 0;
#X connect 22 0 16 0;
#X connect 24 0 25 0;
#X connect 25 0 36 0;
#X connect 25 0 39 0;
#X connect 28 0 7 0;
#X connect 28 0 41 0;
#X connect 31 0 2 0;
#X connect 35 0 1 0;
#X connect 35 0 4 1;
#X connect 44 0 24 0;
#X connect 44 1 26 0;
#X connect 45 0 15 0;
#X connect 45 1 23 0;
#X connect 46 0 45 0;
#X connect 47 0 44 0;
#X connect 49 0 11 1;
#X connect 50 0 49 1;
#X connect 52 0 15 0;
